<?xml version="1.0" encoding="UTF-8"?>
<svg width="106px" height="134px" viewBox="0 0 106 134" version="1.1" xmlns="http://www.w3.org/2000/svg" xmlns:xlink="http://www.w3.org/1999/xlink">
    <!-- Generator: sketchtool 52.5 (67469) - http://www.bohemiancoding.com/sketch -->
    <title>55DE5E6D-8D68-4132-BAAE-63C8BD797F60</title>
    <desc>Created with sketchtool.</desc>
    <defs>
        <polygon id="path-1" points="0.436417968 0.132931737 99.5295531 0.132931737 99.5295531 29 0.436417968 29"></polygon>
        <polygon id="path-3" points="0 0.0327075169 40.7655819 0.0327075169 40.7655819 48.4529122 0 48.4529122"></polygon>
        <polygon id="path-5" points="0.34154726 0.443529412 7.87711627 0.443529412 7.87711627 9.43939996 0.34154726 9.43939996"></polygon>
    </defs>
    <g id="07.-[R]-Job-Management" stroke="none" stroke-width="1" fill="none" fill-rule="evenodd">
        <g id="[R]-Jobs-None-Search-Result" transform="translate(-669.000000, -363.000000)">
            <g id="Group" transform="translate(669.000000, 363.000000)">
                <g id="Group-3" transform="translate(6.000000, 105.000000)">
                    <mask id="mask-2" fill="white">
                        <use xlink:href="#path-1"></use>
                    </mask>
                    <g id="Clip-2"></g>
                    <path d="M21.7715698,2.310024 C15.1140116,2.459084 8.53843023,5.048784 3.57389535,9.475924 C2.2930814,10.617944 1.07563953,11.949044 0.622732558,13.602624 C-0.151686047,16.428384 1.58668605,19.457724 4.01226744,21.108984 C6.43784884,22.760244 9.41633721,23.337924 12.3023837,23.879064 C25.5837791,26.369004 38.9488953,28.867644 52.461686,28.995244 C65.9750581,29.122844 79.7837791,26.750644 91.514593,20.057444 C94.2727326,18.483324 97.0006395,16.573384 98.5122674,13.785324 C100.025058,10.997264 99.9552907,7.135624 97.5919186,5.015724 C96.2111047,3.776844 94.3163372,3.314004 92.498314,2.937584 C68.8355233,-1.968056 44.3372674,0.542184 20.3023837,3.072144" id="Fill-1" fill="#6BB1E1" mask="url(#mask-2)"></path>
                </g>
                <path d="M42.6079705,31.8791241 C46.759632,26.9645391 56.0846258,27.3328425 61.8555282,28.3355108 C66.6656771,29.1720359 72.9639495,31.0803588 74.8326613,36.1825811 C79.2227707,48.1727744 58.8798613,54.0023088 51.0487927,56.2493082 C50.0671533,56.5310545 50.2319202,57.2182831 51.2309645,56.9313086 C57.8094567,55.0444797 64.8161107,52.7056949 70.5243552,48.830957 C75.3629323,45.5464341 79.4130649,39.0151481 75.3037554,33.5370704 C71.5547285,28.5388329 63.7718135,27.2375716 57.9701625,27.0336686 C52.4406088,26.8396412 44.9199285,27.3601457 41.0647313,31.9244359 C40.6562951,32.4071806 42.3022235,32.2416183 42.6079705,31.8791241" id="Fill-4" fill="#214B8E"></path>
                <path d="M51,33.6463977 L51,36.8531959 L53,36.3536023 L53,34.2683144 C53,33.9316038 51,34.206509 51,34.7679079 L51,36.8531959 C51,37.1899064 53,36.915645 53,36.3536023 L53,33.1468041 C53,32.8100936 51,33.084355 51,33.6463977" id="Fill-6" fill="#214B8E"></path>
                <path d="M43.1306088,74.8672221 C53.2977315,77.4159986 70.4415163,76.2660397 75.2392988,65.1177471 C76.6938514,61.7373195 76.492715,53.6343632 70.7588518,55.1981221 C68.3345974,55.8584659 68.32457,58.2943878 67.0664351,60.1017967 C63.7680334,64.84053 57.6301278,65.3255152 52.2737641,65.0014201 C51.8361007,64.974798 50.3019192,65.732949 51.192582,65.786772 C55.3692599,66.0391031 59.6786523,65.9274061 63.5303267,64.1431468 C65.2974961,63.324228 66.9508259,62.1760053 68.1900859,60.678223 C68.7439484,60.0091981 69.2211313,59.2585707 69.5856542,58.474955 C69.7407829,58.1392851 69.909478,57.054724 70.1819854,56.8515858 C71.1145271,56.8099165 72.0470688,56.7682471 72.9790206,56.725999 C73.4803871,57.2815906 73.8272148,57.9060524 74.0195036,58.6005419 C76.1411686,64.5563681 71.0461053,70.2008315 65.9687374,72.579458 C59.3406723,75.683826 51.5423589,75.9072202 44.51556,74.1461105 C44.0690489,74.0344135 42.5496135,74.7219581 43.1306088,74.8672221" id="Fill-8" fill="#214B8E"></path>
                <g id="Group-12" transform="translate(0.000000, 34.000000)">
                    <mask id="mask-4" fill="white">
                        <use xlink:href="#path-3"></use>
                    </mask>
                    <g id="Clip-11"></g>
                    <path d="M35.862469,0.093625 C20.1941169,3.71729167 6.78480704,15.6260417 1.74815915,31.1409583 C0.42114507,35.2295417 -1.05716479,40.6020417 1.07310282,44.648625 C2.45959577,47.2835417 5.3013,48.9075417 8.25214507,48.3399583 C11.3311873,47.7484583 13.1103563,45.1292917 14.805793,42.707875 C17.3980324,39.004875 19.6628493,35.0842917 21.9155394,31.1660417 C27.0405394,22.2480417 32.2342577,13.1112917 40.7229901,7.01779167 C41.0353986,6.79320833 39.5374549,6.941375 39.2152296,7.17354167 C27.4805676,15.5962917 22.1407507,29.5152083 14.3825113,41.2244583 C13.4360465,42.651875 12.4757225,44.100875 11.394131,45.429125 C8.90872254,48.4782083 5.15924366,47.9152917 3.1381169,44.8609583 C0.668877465,41.129375 1.86365211,35.998375 3.02782113,32.024125 C5.05356761,25.106375 8.80535634,18.7725417 13.7063,13.542375 C19.7177085,7.12804167 27.4551592,2.53429167 35.9866239,0.561458333 C36.961962,0.335125 36.8470465,-0.134458333 35.862469,0.093625" id="Fill-10" fill="#214B8E" mask="url(#mask-4)"></path>
                </g>
                <path d="M19.9158957,75.3890475 C15.8474689,81.9843133 14.2271707,89.7129055 14.0161551,97.3894572 C13.9158648,101.016102 14.2318084,104.882711 16.417327,107.925345 C18.4758883,110.79162 21.9147466,112.552324 25.0689658,113.948165 C38.5264265,119.901598 53.9653468,118.089433 68.082521,116.069683 C68.7451332,115.974276 69.5926738,115.316252 68.4048416,115.486251 C54.0725937,117.537225 38.3299038,119.283473 24.9078055,112.564466 C21.8457608,111.032163 18.7216867,109.092209 17.1605192,105.921208 C15.7286278,103.012144 15.5941343,99.6578447 15.7141349,96.479905 C15.9981944,88.9797127 17.5958838,81.5269352 21.570397,75.0843215 C21.6689483,74.9224177 20.1692304,74.9779276 19.9158957,75.3890475" id="Fill-13" fill="#214B8E"></path>
                <path d="M42.1224097,84.6957936 C47.2218019,83.0014759 56.3371643,80.9284689 60.7687018,85.3104442 C65.0570012,89.5519938 59.6463757,96.1381937 58.1185033,100.462617 C57.1960031,103.070854 54.3601257,109.427999 58.635457,110.199765 C61.395884,110.698737 64.4622391,110.336738 67.2662858,110.494429 C68.5171135,110.564642 69.9388837,110.604352 71.0187689,111.313963 C72.4452547,112.252053 72.9675136,114.600732 70.8613839,115.41854 C69.7414156,115.853054 70.7859334,116.169588 71.4809031,115.900822 C73.0046494,115.308616 74.4535346,114.007951 73.8664354,112.214645 C73.2439689,110.315444 70.7823966,109.923518 69.0458564,109.772157 C67.3169791,109.622523 65.5545028,109.650148 63.8203205,109.596049 C61.3357594,109.518355 58.3996742,110.174442 58.183933,107.070687 C57.9381294,103.538173 60.1102783,99.0503024 61.6322562,95.9638125 C62.894873,93.4027683 64.6667806,90.4233243 63.9464642,87.4617213 C63.3623124,85.0583684 61.3062865,83.5752649 59.0097622,82.8305477 C53.4906767,81.0401189 46.8292235,82.4443768 41.5034799,84.2135116 C40.3605229,84.5933519 41.4250821,84.9271509 42.1224097,84.6957936" id="Fill-15" fill="#214B8E"></path>
                <path d="M64.5260314,78.1644917 C70.6613085,78.8559756 77.3439428,81.0674627 76.0338842,88.5808998 C75.495814,91.6673491 73.7324297,94.2790482 71.9644019,96.8053153 C70.6282233,98.7140631 68.2936836,101.179553 68.1950084,103.622108 C68.0202952,107.957357 74.783611,106.70225 77.3607757,106.640326 C79.2739141,106.593883 81.4743716,106.338161 83.2145382,107.280207 C84.0817192,107.749797 84.619209,108.185558 84.9941748,109.114417 C85.5740369,110.549561 85.3447621,110.835099 83.9696938,111.632657 C81.0297526,113.337285 75.8318902,112.68479 72.4217906,112.836733 C71.4890195,112.878016 71.1070883,114.04941 72.2569449,113.99838 C76.020534,113.830956 80.3587611,114.214541 84.0306403,113.367674 C85.8120183,112.957714 87.0663545,111.837923 86.9972818,109.928602 C86.9078937,107.474006 84.7538716,106.066957 82.5267138,105.628902 C81.2323271,105.374899 79.9019529,105.422489 78.5907333,105.447144 C77.5250409,105.467785 76.4587681,105.508495 75.3930757,105.539457 C74.6611377,105.560671 72.6162388,105.860544 71.973689,105.555511 C71.3740919,104.464388 70.7750752,103.373266 70.1754781,102.282143 C70.4436426,101.699026 70.7518575,101.13655 71.0983817,100.595289 C71.5157198,99.8992184 71.982976,99.231816 72.4438474,98.5644136 C73.4573,97.0954404 74.5375034,95.6643095 75.4575048,94.1334123 C77.06475,91.4592159 78.255818,88.3572856 77.837319,85.1945781 C77.0130906,78.9740898 70.3815352,77.5980024 65.120985,77.0051381 C64.3269396,76.9151191 63.3924272,78.0360569 64.5260314,78.1644917" id="Fill-17" fill="#214B8E"></path>
                <path d="M39.9161584,9.55180059 C39.7859541,8.82089015 39.438537,7.1323126 40.4832567,6.76770139 C41.1472369,6.53644335 42.3172243,7.41814979 42.6800685,7.85534564 C44.1172523,9.58387287 42.8534685,12.1040791 42.0105345,13.7994087 C41.8315808,14.1600812 43.5544736,14.0092852 43.7846451,13.5473318 C45.0052332,11.0912702 46.2955516,7.01752759 42.307968,6.10881291 C41.2829949,5.87530419 40.0815364,6.01709744 39.1836821,6.53925671 C37.8372093,7.32305828 37.8983004,8.70104109 38.128472,9.98843377 C38.203756,10.4115628 40.0044011,10.0458263 39.9161584,9.55180059" id="Fill-19" fill="#F9AD29"></path>
                <path d="M44.4693832,17.674114 C44.6215266,17.5460048 44.7741946,17.4183359 44.9263379,17.290667 C45.1807846,17.0771518 44.7075663,16.9965883 44.5417825,17.0001102 C44.187131,17.0067138 43.7857873,17.1119305 43.5308161,17.325886 C43.3786727,17.4539952 43.2260047,17.5816641 43.0738613,17.7097732 C42.8188901,17.9228482 43.292633,18.0034117 43.4589414,17.9998898 C43.8130682,17.9932862 44.2144119,17.8880695 44.4693832,17.674114" id="Fill-21" fill="#F9AD29"></path>
                <path d="M48.879886,4.45730187 C48.3439862,3.14870035 49.7886378,2.53262141 50.5942859,3.56715839 C51.3250038,4.50486679 51.3142139,5.55356 50.9491546,6.65321562 C50.3317309,8.51504245 48.8097515,9.97030246 48.1311848,11.8202381 C48.0047029,12.1639512 49.6867329,11.9833178 49.847383,11.5444748 C50.723765,9.1554701 55.4155858,4.32763084 51.3939395,2.2749781 C49.6579598,1.38823211 46.2627288,2.74779604 47.1433069,4.89671112 C47.313548,5.31403666 49.0225529,4.80611128 48.879886,4.45730187" id="Fill-23" fill="#F9AD29"></path>
                <path d="M49.5699881,17 C50.2725838,17 51.8417628,16 50.4300119,16 C49.7274162,16 48.1582372,17 49.5699881,17" id="Fill-25" fill="#F9AD29"></path>
                <g id="Group-29" transform="translate(58.000000, 0.000000)">
                    <mask id="mask-6" fill="white">
                        <use xlink:href="#path-5"></use>
                    </mask>
                    <g id="Clip-28"></g>
                    <path d="M2.40972308,4.10923529 C1.86818462,2.99747059 2.37895385,1.68276471 3.78018462,1.68276471 C4.9888,1.68335294 5.62141538,2.56982353 5.89587692,3.64452941 C6.48787692,5.96276471 4.43249231,7.73217647 2.32295385,8.36394118 C1.26141538,8.68276471 1.52418462,9.701 2.60664615,9.37629412 C5.90510769,8.38688235 9.9568,4.59335294 6.64356923,1.34511765 C4.36664615,-0.888411765 -0.942276923,1.34629412 0.626953846,4.56570588 C0.951876923,5.23394118 2.70756923,4.721 2.40972308,4.10923529" id="Fill-27" fill="#F9AD29" mask="url(#mask-6)"></path>
                </g>
                <path d="M59,13.4795394 L59,13.8564847 C59,14.1598586 61,13.951262 61,13.5206529 L61,13.1437076 C61,12.8399009 59,13.0489303 59,13.4795394" id="Fill-30" fill="#F9AD29"></path>
                <path d="M13.7622696,105.000143 C10.1681191,105.044269 7.48411961,109.222317 9.96165756,112.503947 C13.3613902,117.004779 19.621188,114.428557 23.5410889,112.45015 C24.5848665,111.923058 23.6190855,111.460039 22.9067933,111.81909 C19.7335949,113.420313 15.6869495,115.357012 12.4615622,112.807992 C11.6339957,112.154567 10.9452172,111.182591 10.7249916,110.106647 C10.4089908,108.567079 11.2652325,105.936456 13.0958578,105.914091 C13.6699354,105.906837 14.8748677,104.986845 13.7622696,105.000143" id="Fill-32" fill="#214B8E"></path>
            </g>
        </g>
    </g>
</svg>