<?xml version="1.0" encoding="UTF-8"?>
<svg width="37px" height="37px" viewBox="0 0 37 37" version="1.1" xmlns="http://www.w3.org/2000/svg" xmlns:xlink="http://www.w3.org/1999/xlink">
    <!-- Generator: Sketch 58 (84663) - https://sketch.com -->
    <title>Combined Shape Copy</title>
    <desc>Created with Sketch.</desc>
    <g id="Page-1" stroke="none" stroke-width="1" fill="none" fill-rule="evenodd">
        <path d="M31.5788646,19.9237118 C32.5880349,20.0477293 33.1753712,20.1180349 33.4980786,20.1180349 C33.7727511,20.1180349 34.6706378,20.056882 36.218961,19.9489232 L36.498952,19.9293886 L36.498952,27.7979476 C36.498952,32.4956689 32.7251687,36.3565491 28.0574257,36.4953917 L27.7972052,36.4992576 L26.5089956,36.4992576 C26.4286463,35.3970742 26.3465502,34.2468559 26.2657642,33.0918341 C25.6137991,23.7315721 25.5766812,21.1031878 25.6177293,20.3774236 C25.6286463,20.3678166 25.6391266,20.359083 25.6491703,20.350786 C26.0670742,20.001441 26.4631441,19.6717467 27.3902183,19.5879039 C28.2234061,19.5114847 30.1635808,19.7499127 31.5788646,19.9237118 Z M7.77030568,0.0505676856 C10.7676856,3.8619214 13.6545852,7.67152838 13.9257642,8.28331878 C14.1384279,8.84969432 15.449345,11.9942358 16.7681223,15.0785153 C17.5008734,16.7920524 18.1379913,18.2544978 18.6091703,19.3077729 C19.5349345,21.3758952 19.6475983,21.4872489 19.7886463,21.6291703 C20.0069869,21.8479476 20.3777293,22.0916157 22.471179,22.6536245 L22.7318474,22.7230366 C23.1620694,22.8363513 23.5666667,22.9370306 23.8781659,23.0134498 C23.890393,23.32131 23.9048035,23.6510044 23.9222707,24.0029694 C24.0200873,26.100786 24.1960699,28.9942358 24.4445415,32.6038428 C24.5358079,33.92131 24.6296943,35.2396507 24.7222707,36.4990393 L24.7222707,36.4990393 L8.70131004,36.4990393 C3.91572052,36.4990393 -5.68434189e-14,32.5833188 -5.68434189e-14,27.7977293 L-5.68434189e-14,27.7977293 L-5.68434189e-14,8.70078603 C-5.68434189e-14,4.23004367 3.41834061,0.518253275 7.77030568,0.0505676856 Z M12.0672489,22.8047162 C11.0820961,22.8047162 10.2842795,23.6029694 10.2842795,24.5868122 C10.2842795,25.5715284 11.0820961,26.369345 12.0672489,26.369345 C13.0510917,26.369345 13.8489083,25.5715284 13.8489083,24.5868122 C13.8489083,23.6029694 13.0510917,22.8047162 12.0672489,22.8047162 Z M9.99344978,1.77635684e-15 L27.79869,1.77635684e-15 C32.4972688,1.77635684e-15 36.3564807,3.77378325 36.4952624,8.44111295 L36.4991266,8.70131004 L36.4991266,18.1427948 C36.4593886,18.1458515 36.4183406,18.1489083 36.3772926,18.1510917 C35.0218341,18.2462882 33.7414847,18.3353712 33.4982533,18.3353712 C33.2689956,18.3353712 32.520524,18.2436681 31.7969432,18.1554585 C30.2165939,17.9606987 28.2524017,17.7196507 27.228821,17.8126638 C25.7489083,17.9475983 25.0017467,18.569869 24.5082969,18.9816594 C24.4231441,19.0528384 24.3427948,19.119214 24.2729258,19.1729258 C23.8585153,19.4834061 23.8218341,19.9414847 23.8266376,21.0786026 C23.8279476,21.1065502 23.8279476,21.1358079 23.8279476,21.1655022 C22.6270742,20.8628821 21.4646288,20.5296943 21.0624454,20.3497817 C20.3262009,18.9729258 16.0737991,8.93886463 15.5908297,7.65065502 C15.4956332,7.39606987 15.2973799,6.86768559 11.5620087,2.02052402 C11.1295197,1.45947598 10.6984279,0.904296943 10.2926568,0.38360524 L9.99344978,1.77635684e-15 L27.79869,1.77635684e-15 Z" id="Combined-Shape-Copy" fill="#FFFFFF"></path>
    </g>
</svg>