<?xml version="1.0" encoding="UTF-8"?>
<svg width="30px" height="43px" viewBox="0 0 30 43" version="1.1" xmlns="http://www.w3.org/2000/svg" xmlns:xlink="http://www.w3.org/1999/xlink">
    <!-- Generator: sketchtool 52.5 (67469) - http://www.bohemiancoding.com/sketch -->
    <title>3262544B-1E0D-40E4-A8B9-B1F93335B536</title>
    <desc>Created with sketchtool.</desc>
    <g id="07.-[R]-Job-Management" stroke="none" stroke-width="1" fill="none" fill-rule="evenodd">
        <g id="[R]-Jobs-None-Search-Result" transform="translate(-150.000000, -10.000000)" fill="#173B66">
            <g id="JobHop/-Secondary-Button/-Normal/-Brown" transform="translate(150.000000, 10.000000)">
                <g id="Jophop-logo-Rebrand-Final-14">
                    <path d="M11.4285712,33.9398004 C11.1285712,33.9398004 10.8571426,33.7097001 10.7999998,33.3933121 C10.7142855,32.8468238 10.4571426,32.1565228 9.99999979,31.8401348 C9.75714266,31.6675596 9.05714267,31.7682285 8.64285697,31.9120412 C8.31428555,32.0270914 7.94285698,31.8401348 7.84285699,31.5093656 C7.72857128,31.1642151 7.89999984,30.8046833 8.24285698,30.6896332 C8.49999983,30.6033455 9.84285694,30.1719074 10.7142855,30.7615395 C11.7142855,31.4518405 11.9999997,32.7892987 12.0714283,33.177593 C12.1285712,33.5371248 11.8999997,33.867894 11.5428569,33.9254191 C11.4999998,33.9254191 11.4714283,33.9398004 11.4285712,33.9398004 Z" id="Path"></path>
                    <path d="M18.6142858,33.9398007 C18.5857144,33.9398007 18.5428572,33.9398007 18.5142858,33.9254194 C18.1714287,33.8678943 17.9285715,33.5371251 17.9857144,33.1775933 C18.0428572,32.789299 18.3285715,31.4374595 19.3285715,30.7615397 C20.1857144,30.1719076 21.5142858,30.5889645 21.7714286,30.6896334 C22.1000001,30.8046835 22.2857144,31.1785966 22.1571429,31.5237471 C22.0428572,31.8688976 21.6857144,32.0414729 21.3428572,31.9264227 C20.9428572,31.78261 20.2571429,31.6819411 20.0285715,31.8545163 C19.5714287,32.1709043 19.3142858,32.8612053 19.2285715,33.4076937 C19.2000001,33.7097004 18.9285715,33.9398007 18.6142858,33.9398007 Z" id="Path"></path>
                    <path d="M15.0142863,39.4622062 C14.8571435,39.4622062 14.7000006,39.4190623 14.5571434,39.3327747 L12.6714291,38.1103667 C12.2714291,37.8515038 12.1571434,37.3193968 12.4142863,36.9167213 C12.6714291,36.5140457 13.1857149,36.3989955 13.5857149,36.6434771 L15.0142863,37.5782597 L16.4428578,36.6434771 C16.8428578,36.3846142 17.3571435,36.5140457 17.6142863,36.9167213 C17.8714292,37.3193968 17.7428578,37.8515038 17.3571435,38.1103667 L15.4714292,39.3327747 C15.328572,39.4190623 15.1714292,39.4622062 15.0142863,39.4622062 Z" id="Path"></path>
                    <path d="M15.0142862,42.7555188 C14.5428577,42.7555188 14.1714291,42.3672245 14.1714291,41.8926426 L14.1714291,38.5849504 C14.1714291,38.1103684 14.5571434,37.7220741 15.0142862,37.7220741 C15.4714291,37.7220741 15.8571434,38.1103684 15.8571434,38.5849504 L15.8571434,41.8926426 C15.8571434,42.3672245 15.4714291,42.7555188 15.0142862,42.7555188 Z" id="Path"></path>
                    <path d="M15.0142857,42.9568555 C11.4857143,42.9568555 7.08571428,42.9568555 4.02857143,39.7354508 C1.28571429,36.8448154 3.44285714,32.6454844 4.61428571,30.4020062 C4.71428571,30.2150497 4.8,30.0280931 4.88571428,29.8555179 C5.3,29.0357855 5.82857142,28.2016718 6.38571428,27.3244143 C6.84285714,26.619732 7.31428571,25.8719059 7.75714285,25.080936 C6.64285714,24.2612036 3.17142857,21.3849495 1.62857143,16.5959863 C-1.2,7.80902997 0.685714286,0.920401322 0.757142858,0.632775909 C0.842857143,0.330769225 1.08571429,0.100668895 1.38571429,0.0287625414 C1.68571429,-0.0431438119 2,0.0719063534 2.21428571,0.302006684 C2.44285714,0.560869556 7.84285714,6.90300992 9.65714285,10.9153844 C13.4857143,19.4003341 10.2,24.5344477 7.79999999,28.2735781 C7.25714285,29.1076918 6.75714285,29.8986617 6.38571428,30.6464878 C6.29999999,30.819063 6.19999999,31.0060195 6.09999999,31.2073573 C4.77142857,33.7959861 3.5,36.7010027 5.24285714,38.5418054 C7.78571428,41.231103 11.6285714,41.231103 15,41.231103 C15.4714286,41.231103 15.8428571,41.6193973 15.8428571,42.0939792 C15.8571428,42.5685612 15.4857143,42.9568555 15.0142857,42.9568555 Z M2.07142864,2.80434785 C1.70000008,5.29230764 1.38571437,10.2826085 3.24285718,16.0638792 C4.52857144,20.0762537 7.41428565,22.6361198 8.55714276,23.5277586 C9.88571416,20.5364544 10.4714284,16.8117053 8.12857135,11.6344479 C6.89999995,8.9163878 3.75714288,4.88963207 2.07142864,2.80434785 Z" id="Shape" fill-rule="nonzero"></path>
                    <path d="M15.0142862,42.9568555 C14.5428577,42.9568555 14.1714291,42.5685612 14.1714291,42.0939793 C14.1714291,41.6193973 14.5571434,41.231103 15.0142862,41.231103 C18.4000005,41.231103 22.2285719,41.231103 24.7714291,38.5418054 C26.5142862,36.7010028 25.2428577,33.7959861 23.9142862,31.2073574 C23.8142862,31.0060196 23.7142862,30.819063 23.6285719,30.6464878 C23.2571434,29.913043 22.7571434,29.1220731 22.2142862,28.2735781 C19.8142862,24.5200665 16.5285719,19.3859529 20.3571434,10.9153844 C22.1714291,6.90300992 27.5714291,0.560869556 27.8000005,0.302006684 C28.0000005,0.0575250825 28.3142862,-0.0431438122 28.6285719,0.0287625411 C28.9285719,0.100668894 29.1714291,0.330769225 29.2571434,0.632775909 C29.3428577,0.920401323 31.2142862,7.80902997 28.4000005,16.6103676 C26.8571434,21.413712 23.3857148,24.2755849 22.2714291,25.0953173 C22.7142862,25.8862872 23.1857148,26.619732 23.6428577,27.3387955 C24.2000005,28.2160531 24.7428577,29.0501668 25.1428577,29.8698992 C25.2285719,30.0424744 25.3142862,30.2150497 25.4142862,30.4163875 C26.5714291,32.674247 28.7285719,36.8591967 26.0000005,39.7498321 C22.9428577,42.9568555 18.5428577,42.9568555 15.0142862,42.9568555 Z M27.9571429,2.78996668 C26.257143,4.88963228 23.1285717,8.91638823 21.9000003,11.6488298 C19.5714289,16.8260874 20.1428575,20.5508367 21.4714289,23.5421411 C22.6000003,22.6505023 25.4857144,20.090636 26.7857144,16.0782613 C28.6428572,10.2538465 28.3285715,5.27792661 27.9571429,2.78996668 Z" id="Shape" fill-rule="nonzero"></path>
                </g>
            </g>
        </g>
    </g>
</svg>